<svg xmlns="http://www.w3.org/2000/svg" width="25" height="36">
<path fill="#ffde00" d="M7.5,0.5,17.5,0.5,24.5,5.5,24.5,11.5,17.5,16.5,7.5,16.5,0.5,11.5,0.5,5.5"/>
<path fill="#0072bc" d="m11.414 4.602-1.03 2.062-3.315.008H3.755l.719.351c1.55.743 4.24 2.016 4.416 2.079.096.039.176.093.176.132 0 .04-.455.977-1.006 2.079-.551 1.109-.99 2.023-.975 2.039.008.015.424-.165.903-.391.487-.234 1.693-.805 2.691-1.281l1.805-.86.391.188c.208.101 1.03.492 1.821.86.79.374 1.805.85 2.26 1.07.447.218.847.374.87.343.033-.023-.383-.937-.926-2.023-.535-1.078-.966-1.992-.966-2.024 0-.03.24-.164.543-.304.471-.22 3.282-1.547 4.368-2.063l.4-.195H14.608l-1.03-2.07c-.559-1.141-1.046-2.07-1.078-2.07-.024 0-.511.929-1.086 2.07z"/>
<path fill="#a88700" d="M24.5,11.5,24.5,30.5,17.5,35.5,17.5,16.5"/>
<path fill="#c4a300" d="M17.5,16.5,17.5,35.5,7.5,35.5,7.5,16.5"/>
<path fill="#e1c000" d="M7.5,16.5,7.5,35.5,0.5,30.5,0.5,11.5"/>
<path fill="none" stroke-linecap="round" stroke-linejoin="round" stroke="#583700" d="M7.5 0.5 17.5 0.5 24.5 5.5 24.5 11.5 17.5 16.5 7.5 16.5 0.5 11.5 0.5 5.5z M24.5 11.5 24.5 30.5 17.5 35.5 7.5 35.5 0.5 30.5 0.5 11.5 M17.5 16.5 17.5 35.5 M7.5 16.5 7.5 35.5"/>
</svg>
