<svg xmlns="http://www.w3.org/2000/svg" width="25" height="36">
<path fill="#ffde00" d="M7.5,0.5,17.5,0.5,24.5,5.5,24.5,11.5,17.5,16.5,7.5,16.5,0.5,11.5,0.5,5.5"/>
<path fill="#a88700" d="M24.5,11.5,24.5,30.5,17.5,35.5,17.5,16.5"/>
<path fill="#c4a300" d="M17.5,16.5,17.5,35.5,7.5,35.5,7.5,16.5"/>
<path fill="#e1c000" d="M7.5,16.5,7.5,35.5,0.5,30.5,0.5,11.5"/>
<path fill="none" stroke-linecap="round" stroke-linejoin="round" stroke="#583700" d="M7.5 0.5 17.5 0.5 24.5 5.5 24.5 11.5 17.5 16.5 7.5 16.5 0.5 11.5 0.5 5.5z M24.5 11.5 24.5 30.5 17.5 35.5 7.5 35.5 0.5 30.5 0.5 11.5 M17.5 16.5 17.5 35.5 M7.5 16.5 7.5 35.5"/>
</svg>
