<svg xmlns="http://www.w3.org/2000/svg" width="25" height="36">
<path fill="#68b045" d="M7.5,0.5,17.5,0.5,24.5,5.5,24.5,11.5,17.5,16.5,7.5,16.5,0.5,11.5,0.5,5.5"/>
<path fill="#fff200" d="M15.215 4.57c-.487.063-1.453.328-2.116.586-1.621.617-3.897 1.93-4.584 2.633-.56.57-.767 1.086-.767 1.89v.673l-.854.562c-.48.305-.863.586-.863.633 0 .07 1.374 1.015 1.478 1.015.024 0 .439-.257.934-.578l.887-.586.646.047c1.039.063 2.588-.218 3.546-.656.75-.336 2.085-1.305 3.115-2.25 1.853-1.695 2.124-3.18.703-3.797-.392-.164-1.502-.258-2.125-.172z"/>
<path fill="#297000" d="M24.5,11.5,24.5,30.5,17.5,35.5,17.5,16.5"/>
<path fill="#3e850f" d="M17.5,16.5,17.5,35.5,7.5,35.5,7.5,16.5"/>
<path fill="#539a2d" d="M7.5,16.5,7.5,35.5,0.5,30.5,0.5,11.5"/>
<path fill="none" stroke-linecap="round" stroke-linejoin="round" stroke="#003500" d="M7.5 0.5 17.5 0.5 24.5 5.5 24.5 11.5 17.5 16.5 7.5 16.5 0.5 11.5 0.5 5.5z M24.5 11.5 24.5 30.5 17.5 35.5 7.5 35.5 0.5 30.5 0.5 11.5 M17.5 16.5 17.5 35.5 M7.5 16.5 7.5 35.5"/>
</svg>
