<svg xmlns="http://www.w3.org/2000/svg" width="25" height="36">
<path fill="#db2128" d="M7.5,0.5,17.5,0.5,24.5,5.5,24.5,11.5,17.5,16.5,7.5,16.5,0.5,11.5,0.5,5.5"/>
<path fill="#ffd800" d="m11.254 4.71-1.19 1.556-.639.086c-.351.046-1.07.117-1.597.164a36.08 36.08 0 0 0-1.541.164c-.32.039-.75.07-.967.07-.207 0-.407.023-.43.055-.033.023.774.586 1.78 1.25 1.014.656 1.837 1.234 1.837 1.273 0 .047-.176.781-.4 1.64-.215.86-.399 1.595-.399 1.65 0 .1-.048.116 1.438-.4l2.076-.71c.503-.172.998-.336 1.086-.36.144-.03 1.342.313 1.83.524.087.039.43.156.758.265.327.11.966.32 1.421.477.456.156.839.274.855.258.016-.016-.16-.781-.4-1.703-.239-.922-.415-1.696-.399-1.727.024-.023.36-.258.767-.508 2.396-1.515 2.97-1.898 2.867-1.937a8.238 8.238 0 0 0-.759-.078c-.351-.032-.982-.086-1.397-.125-.416-.04-1.15-.102-1.622-.149-1.493-.14-1.253.024-2.595-1.734l-1.198-1.555-1.182 1.555z"/>
<path fill="#9d0000" d="M24.5,11.5,24.5,30.5,17.5,35.5,17.5,16.5"/>
<path fill="#b10000" d="M17.5,16.5,17.5,35.5,7.5,35.5,7.5,16.5"/>
<path fill="#c60012" d="M7.5,16.5,7.5,35.5,0.5,30.5,0.5,11.5"/>
<path fill="none" stroke-linecap="round" stroke-linejoin="round" stroke="#5f0000" d="M7.5 0.5 17.5 0.5 24.5 5.5 24.5 11.5 17.5 16.5 7.5 16.5 0.5 11.5 0.5 5.5z M24.5 11.5 24.5 30.5 17.5 35.5 7.5 35.5 0.5 30.5 0.5 11.5 M17.5 16.5 17.5 35.5 M7.5 16.5 7.5 35.5"/>
</svg>
